HIERARCHY
ROOT hip
{
	OFFSET 0.000000 0.000000 0.000000 
	CHANNELS 6 Xposition Yposition Zposition Xrotation Zrotation Yrotation
	JOINT abdomen
	{
		OFFSET 0.000000 3.402643 0.000000 
		CHANNELS 3 Xrotation Zrotation Yrotation
		JOINT chest
		{
			OFFSET 0.000000 8.438565 -0.680529 
			CHANNELS 3 Xrotation Zrotation Yrotation
			JOINT neck
			{
				OFFSET 0.000000 10.207942 -0.272212 
				CHANNELS 3 Xrotation Zrotation Yrotation
				JOINT head
				{
					OFFSET 0.000000 3.130431 0.000000 
					CHANNELS 3 Xrotation Zrotation Yrotation
					End Site
					{
						OFFSET 0.000000 3.130435 0.000000 
					}
				}
			}
			JOINT lCollar
			{
				OFFSET 3.470700 6.669187 -0.816635 
				CHANNELS 3 Yrotation Zrotation Xrotation
				JOINT lShldr
				{
					OFFSET 3.198488 0.000000 0.000000 
					CHANNELS 3 Zrotation Yrotation Xrotation
					JOINT lForeArm
					{
						OFFSET 10.139888 0.000000 0.000000 
						CHANNELS 3 Yrotation Zrotation Xrotation
						JOINT lHand
						{
							OFFSET 8.370511 0.000000 0.000000 
							CHANNELS 3 Zrotation Yrotation Xrotation
							End Site
							{
								OFFSET 4.083176 0.000000 0.000000 
							}
						}
					}
				}
			}
			JOINT rCollar
			{
				OFFSET -3.470700 6.669187 -0.816635 
				CHANNELS 3 Yrotation Zrotation Xrotation
				JOINT rShldr
				{
					OFFSET -3.198488 0.000000 0.000000 
					CHANNELS 3 Zrotation Yrotation Xrotation
					JOINT rForeArm
					{
						OFFSET -10.139888 0.000000 0.000000 
						CHANNELS 3 Yrotation Zrotation Xrotation
						JOINT rHand
						{
							OFFSET -8.370511 0.000000 0.000000 
							CHANNELS 3 Zrotation Yrotation Xrotation
							End Site
							{
								OFFSET -4.083176 0.000000 0.000000 
							}
						}
					}
				}
			}
		}
	}
	JOINT lThigh
	{
		OFFSET 5.308129 -1.633274 1.361059 
		CHANNELS 3 Xrotation Zrotation Yrotation
		JOINT lShin
		{
			OFFSET -2.041588 -20.007561 0.000000 
			CHANNELS 3 Xrotation Zrotation Yrotation
			JOINT lFoot
			{
				OFFSET 0.000000 -19.190928 -1.224953 
				CHANNELS 3 Xrotation Yrotation Zrotation
				End Site
				{
					OFFSET 0.000000 -2.449906 4.627600 
				}
			}
		}
	}
	JOINT rThigh
	{
		OFFSET -5.308129 -1.633274 1.361059 
		CHANNELS 3 Xrotation Zrotation Yrotation
		JOINT rShin
		{
			OFFSET 2.041588 -20.007561 0.000000 
			CHANNELS 3 Xrotation Zrotation Yrotation
			JOINT rFoot
			{
				OFFSET 0.000000 -19.190928 -1.224953 
				CHANNELS 3 Xrotation Yrotation Zrotation
				End Site
				{
					OFFSET 0.000000 -2.449906 4.627600 
				}
			}
		}
	}
}
MOTION
Frames: 8
Frame Time: 0.033333
-2.277388 49.925350 1.527800 -1.634835 -0.247962 -12.422010 0.000000 0.000000 0.000000 -2.921922 -1.554870 -5.666210 -1.589590 -0.350890 -3.545035 7.750445 2.135267 -3.234541 -3.521967 9.154817 6.304141 -46.800640 -8.234814 -30.532183 -34.677437 10.975951 27.789087 9.698360 0.867193 -8.758718 3.089181 -14.089146 8.026228 46.623127 20.199903 -47.516716 44.182018 4.962090 66.063179 -11.054730 -14.291550 -8.752090 -4.980390 14.910161 10.709895 28.295841 -3.483221 -26.484945 -0.674659 -0.606694 8.421895 -8.327912 -10.560953 -15.792215 21.700745 2.275817 10.681083 -6.664666 0.429722 -4.207983 
-1.859549 49.808483 1.327798 -1.713420 -0.644105 -14.082990 0.000000 0.000000 0.000000 -2.797427 -1.619656 -6.721574 -2.676526 0.604159 -3.769733 8.154681 1.862697 -2.989558 -3.521967 9.154817 6.304141 -50.821999 -9.670525 -24.298531 -36.540176 11.336968 26.563309 10.427297 1.273040 -8.812563 3.089181 -14.089146 8.026228 50.564316 22.932844 -44.262234 50.768044 8.337325 66.145630 -10.763250 -14.785892 -8.739291 -4.745664 15.902810 10.141512 29.799347 -2.458799 -29.912270 0.416996 -0.539378 8.505924 -8.953509 -10.543257 -15.548108 21.770624 2.236839 12.292118 -5.913516 0.431203 -4.508424 
-1.338842 49.689205 1.073519 -1.853165 -0.977480 -15.754434 0.000000 0.000000 0.000000 -2.245908 -1.828135 -7.914516 -4.118353 1.393256 -3.897467 8.396834 2.233670 -2.795032 -3.521967 9.154817 6.304141 -54.662022 -11.701108 -16.119053 -35.704514 13.097102 25.862255 11.107621 1.415040 -8.879165 3.089181 -14.089146 8.026228 55.201904 25.913177 -40.157383 56.604389 10.878672 65.216454 -10.390255 -15.335971 -8.738552 -4.394470 16.618074 9.439875 31.292624 -1.317721 -32.891663 2.259453 -0.414860 7.771642 -9.801862 -10.648752 -15.275800 22.130527 2.032184 13.501856 -5.235655 0.417043 -4.655587 
-0.716522 49.535126 0.762670 -1.897531 -1.388092 -17.456533 0.000000 0.000000 0.000000 -1.845905 -1.901429 -8.754866 -4.745859 2.687523 -4.359826 7.794638 1.697498 -2.579018 -3.521967 9.154817 6.304141 -59.087364 -15.207382 -6.757573 -31.913315 16.213379 26.738245 9.967731 1.303634 -8.774896 3.089181 -14.089146 8.026228 60.458855 28.496092 -34.949745 61.626358 12.476939 63.503307 -10.081830 -15.515133 -8.739406 -3.847666 17.458843 9.273785 32.354221 -0.477636 -35.804031 4.842231 -0.203639 6.027935 -10.994378 -10.670936 -14.808076 22.728664 1.631773 14.853145 -4.178421 0.379350 -4.627098 
0.092470 49.353935 0.362744 -1.989153 -1.700993 -18.807627 0.000000 0.000000 0.000000 -0.984159 -2.117478 -9.743327 -5.987496 3.715579 -5.127920 7.836996 1.531457 -2.735224 -3.521967 9.154817 6.304141 -64.160408 -19.348421 1.942109 -27.632360 19.302803 29.339685 8.297394 0.977517 -8.621582 3.089181 -14.089146 8.026228 65.720123 30.722157 -29.122328 65.800087 13.312883 62.304131 -9.265747 -15.242959 -8.775465 -3.613313 17.952812 8.858186 33.302227 0.361718 -37.139290 6.979852 -0.095268 4.267974 -12.050164 -10.917035 -14.424837 22.835402 1.267156 15.969230 -3.178310 0.349367 -4.732812 
1.096418 49.154228 -0.105292 -2.049487 -1.912349 -19.708977 0.000000 0.000000 0.000000 0.276533 -2.170184 -11.776398 -6.802652 4.479928 -5.681026 7.327911 1.306995 -2.832630 -3.521967 9.154817 6.304141 -69.660324 -22.862858 9.999806 -23.539164 21.690464 29.953716 9.489884 1.002363 -8.744085 3.089181 -14.089146 8.026228 71.250633 33.468910 -21.794077 68.716545 13.286988 61.683514 -8.626925 -15.008646 -8.804076 -3.466566 17.935169 8.399547 33.073158 1.041894 -39.146515 9.217030 -0.115045 2.328008 -13.306767 -11.469286 -14.073482 22.912508 0.890534 16.906286 -1.599617 0.271392 -4.397143 
2.298110 48.918194 -0.610865 -2.057620 -2.115242 -20.346760 0.000000 0.000000 0.000000 1.892122 -1.896656 -13.816392 -8.135983 4.826812 -6.027211 6.825883 1.511640 -2.969777 -3.521967 9.154817 6.304141 -74.884087 -26.158056 14.955331 -22.518091 21.062756 30.288553 9.925246 0.806516 -8.781731 3.089181 -14.089146 8.026228 76.404076 35.746864 -14.368454 71.073082 12.943076 60.864437 -8.411386 -14.564499 -8.811702 -3.378434 17.561859 8.195186 32.073265 1.057351 -41.682613 8.296939 -0.045196 3.584770 -14.559506 -12.176354 -13.741828 22.618402 0.490782 17.950121 0.151785 0.183275 -3.887148 
3.726311 48.699707 -1.128155 -1.970657 -2.235970 -20.856766 0.000000 0.000000 0.000000 3.766006 -1.407285 -16.118362 -9.289376 5.596506 -6.701792 6.022273 1.140911 -3.096256 -3.521967 9.154817 6.304141 -80.013229 -29.380178 18.123865 -23.187296 19.017550 32.105186 10.809503 0.331378 -8.883383 3.089181 -14.089146 8.026228 81.530510 38.286716 -6.714877 71.948120 11.947478 60.687637 -8.302680 -12.844321 -8.811583 -3.700401 16.740776 8.117284 31.784573 0.427143 -42.476372 3.456889 -0.365309 8.474775 -15.601607 -13.197932 -13.567663 21.347412 0.341814 19.517927 2.793800 0.066387 -2.967407 
